<svg aria-hidden="true" style="position: absolute; width: 0; height: 0; overflow: hidden;" version="1.1" xmlns="http://www.w3.org/2000/svg" xmlns:xlink="http://www.w3.org/1999/xlink">
    <defs>
        <symbol id="icon-ice-cream-3" viewBox="0 0 32 32">
            <path d="M29.919 16.316c-0.128-0.187-0.341-0.307-0.582-0.307 0 0 0 0 0 0h-2.353c0.118-0.501 0.186-1.075 0.186-1.666v-0c0-3.485-2.357-6.429-5.561-7.323 0.066-0.331 0.104-0.712 0.105-1.102v-0c-0-3.263-2.654-5.917-5.917-5.917s-5.917 2.654-5.917 5.917c0 0.409 0.042 0.808 0.121 1.194-3.050 0.989-5.262 3.857-5.262 7.232 0 0.572 0.065 1.129 0.186 1.666h-2.262c-0 0-0 0-0 0-0.389 0-0.704 0.315-0.704 0.704 0 0.093 0.018 0.181 0.050 0.262l-0.002-0.005c1.091 2.78 2.97 5.153 5.432 6.863 2.328 1.616 5.031 2.528 7.857 2.658v4.101h-5.194c-0.389 0-0.704 0.315-0.704 0.704s0.315 0.704 0.704 0.704h11.796c0.389 0 0.704-0.315 0.704-0.704s-0.315-0.704-0.704-0.704h-5.194v-4.101c2.826-0.13 5.529-1.042 7.857-2.658 2.462-1.71 4.341-4.083 5.432-6.863 0.031-0.076 0.049-0.165 0.049-0.257 0-0.148-0.046-0.285-0.124-0.399l0.002 0.002zM25.762 14.343c-0 0.593-0.084 1.167-0.24 1.709l0.011-0.044h-11.93c-0.146-0.499-0.229-1.073-0.23-1.666v-0c0-0.002 0-0.004 0-0.006 0-1.011 0.244-1.965 0.676-2.806l-0.016 0.035c0.526 0.17 1.131 0.269 1.759 0.269 0.002 0 0.003 0 0.005 0h-0c2.391 0 4.453-1.426 5.386-3.471 2.635 0.712 4.58 3.122 4.58 5.979zM11.367 18.496c-1.014 0-1.839 0.825-1.839 1.839v0.377c-0 0.238-0.193 0.431-0.431 0.431h-0c-0.238-0-0.431-0.193-0.431-0.431v-1.759c0-0.001 0-0.002 0-0.003 0-0.568-0.163-1.098-0.445-1.545l0.007 0.012h6.598c-0.474 0.607-0.757 1.37-0.757 2.198v2.23c-0 0.238-0.193 0.431-0.431 0.431h-0c-0.238-0-0.431-0.193-0.431-0.431v-1.51c0-1.014-0.825-1.839-1.839-1.839zM15.796 1.408c2.487 0 4.51 2.023 4.51 4.51s-2.023 4.51-4.51 4.51-4.51-2.023-4.51-4.51 2.023-4.51 4.51-4.51zM6.146 14.343c0-2.756 1.809-5.095 4.302-5.897 0.515 1.067 1.303 1.932 2.275 2.526l0.026 0.015c-0.501 1.013-0.783 2.152-0.783 3.356 0 0.572 0.065 1.129 0.186 1.666h-5.776c-0.146-0.499-0.229-1.073-0.23-1.666v-0zM16 25.1c-5.291 0-9.997-2.983-12.263-7.683h2.011c0.832 0 1.51 0.703 1.51 1.535v1.759c0 1.014 0.825 1.839 1.839 1.839s1.839-0.825 1.839-1.839v-0.377c0-0.238 0.193-0.431 0.431-0.431h0c0.238 0 0.431 0.193 0.431 0.431v1.51c0 1.014 0.825 1.839 1.839 1.839s1.839-0.825 1.839-1.839v-2.23c0-1.198 0.974-2.198 2.172-2.198h10.615c-2.266 4.701-6.972 7.683-12.263 7.683z"></path>
        </symbol>
        <symbol id="icon-on-button" viewBox="0 0 32 32">
            <path fill="none" stroke="#d41443" style="stroke: var(--color1, #d41443)" stroke-linejoin="round" stroke-linecap="round" stroke-miterlimit="4" stroke-width="6.4" d="M8.371 3.2l14.17 12.8-14.17 12.8"></path>
        </symbol>
        <symbol id="icon-home" viewBox="0 0 32 32">
            <path fill="#d31342" style="fill: var(--color2, #d31342)" d="M31.618 15.643c0.237-0.258 0.382-0.603 0.382-0.983 0-0.438-0.194-0.832-0.501-1.098l-0.002-0.002-13.637-11.931c-0.293-0.248-0.676-0.399-1.093-0.399-0.431 0-0.824 0.16-1.124 0.425l0.002-0.002-13.681 12.544c-0.292 0.266-0.474 0.647-0.474 1.071 0 0.391 0.155 0.746 0.408 1.007l-0-0 0.345 0.357c0.566 0.591 1.487 0.665 2.053 0.158l1.022-0.916v13.406c0 0.825 0.665 1.489 1.489 1.489h5.329c0.822 0 1.489-0.665 1.489-1.489v-9.378h6.806v9.378c-0.012 0.822 0.576 1.489 1.398 1.489h5.652c0.822 0 1.487-0.665 1.487-1.489v-13.218l0.633 0.556c0.347 0.305 1.078 0.059 1.63-0.549l0.389-0.426z"></path>
        </symbol>
        <symbol id="icon-telegram" viewBox="0 0 32 32">
            <path fill="#fea5bb" style="fill: var(--color3, #fea5bb)" d="M31.258 16c0 8.569-6.946 15.515-15.515 15.515s-15.515-6.946-15.515-15.515c0-8.569 6.946-15.515 15.515-15.515s15.515 6.946 15.515 15.515z"></path>
            <path fill="#fff" style="fill: var(--color4, #fff)" d="M12.705 18.303l-0.307 4.044c0.44 0 0.631-0.177 0.86-0.389l2.065-1.842 4.281 2.926c0.785 0.407 1.338 0.193 1.551-0.674l2.809-12.289h0.001c0.249-1.084-0.42-1.507-1.185-1.241l-16.516 5.902c-1.127 0.407-1.11 0.995-0.192 1.261l4.223 1.226 9.807-5.728c0.462-0.285 0.882-0.127 0.536 0.158l-7.933 6.648z"></path>
        </symbol>
        <symbol id="icon-ice-cream-2" viewBox="0 0 32 32">
            <path d="M23.743 11.295c0-1.786-0.689-3.413-1.814-4.633-0.094-3.689-3.122-6.662-6.834-6.662-3.771 0-6.838 3.068-6.838 6.838 0 1.74 0.642 3.371 1.813 4.637 0.012 0.484 0.073 0.947 0.178 1.393l-0.009-0.046c-0.108 0.148-0.172 0.334-0.172 0.535 0 0.104 0.017 0.204 0.049 0.297l-0.002-0.006 5.922 17.727c0.125 0.367 0.467 0.625 0.869 0.625s0.743-0.259 0.867-0.619l0.002-0.006 5.922-17.728c0.030-0.087 0.047-0.186 0.047-0.29 0-0.201-0.065-0.386-0.174-0.537l0.002 0.003c0.11-0.459 0.172-0.985 0.172-1.527 0-0 0-0 0-0v0zM12.254 14.273h9.301l-0.866 2.592h-7.569l-0.866-2.592zM12.031 12.441c-0.084-0.344-0.133-0.739-0.133-1.146 0-0 0-0 0-0v0c0-2.761 2.246-5.006 5.006-5.006s5.006 2.246 5.006 5.006c0 0.389-0.045 0.772-0.133 1.146h-9.748zM15.095 1.832c2.149 0 3.985 1.361 4.694 3.265-0.844-0.404-1.834-0.64-2.879-0.64-0.002 0-0.004 0-0.005 0h0c-2.915 0-5.408 1.834-6.39 4.407-0.269-0.594-0.426-1.287-0.426-2.017 0-0.003 0-0.006 0-0.009v0c0-2.761 2.246-5.006 5.006-5.006zM16.905 28.194l-3.173-9.497h6.345l-3.173 9.497z"></path>
        </symbol>
        <symbol id="icon-ice-cream-1" viewBox="0 0 32 32">
            <path d="M31.118 5.104c-0.429-1.017-1.047-1.924-1.837-2.699-0.791-0.775-1.711-1.376-2.734-1.785-0.987-0.394-2.027-0.594-3.094-0.594-1.094 0-2.161 0.21-3.169 0.625-0.95 0.391-1.808 0.946-2.555 1.654-1.1-0.517-2.303-0.787-3.539-0.787-1.089-0-2.151 0.208-3.156 0.619-1.041 0.426-1.972 1.050-2.768 1.855-0.786 0.796-1.392 1.727-1.801 2.768-0.391 0.996-0.585 2.049-0.577 3.13 0.009 1.095 0.224 2.161 0.641 3.169 0.206 0.495 0.429 0.917 0.684 1.315l-0.020-0.033-6.64 13.209c-0.288 0.572-0.388 1.209-0.291 1.841 0.099 0.647 0.396 1.232 0.859 1.693l0.003 0.003c0.011 0.011 0.022 0.022 0.033 0.032 0.57 0.551 1.322 0.854 2.116 0.854 0.523-0.001 1.014-0.131 1.445-0.362l-0.016 0.008 13.078-6.894c0.353 0.219 0.764 0.427 1.192 0.601l0.056 0.020c0.999 0.397 2.052 0.599 3.13 0.599 1.097 0 2.163-0.208 3.169-0.619 1.052-0.429 1.987-1.059 2.779-1.873 0.695-0.713 1.25-1.534 1.65-2.439 0.387-0.874 0.618-1.802 0.688-2.759 0.014-0.182 0.022-0.393 0.022-0.607 0-1.343-0.317-2.611-0.879-3.736l0.022 0.048c0.712-0.781 1.261-1.677 1.632-2.665 0.374-0.995 0.552-2.041 0.531-3.108s-0.242-2.105-0.655-3.084zM22.158 23.648c-0.648-0-1.273-0.1-1.859-0.285l0.044 0.012c-0.855-0.263-1.663-0.715-2.353-1.357-0.042-0.039-0.080-0.075-0.117-0.112l0.001 0.001-7.864-7.714c-0.038-0.038-0.075-0.075-0.112-0.112l-0.002-0.002c-0.655-0.677-1.123-1.476-1.402-2.326-0.687-2.090-0.231-4.49 1.406-6.146 1.179-1.193 2.733-1.791 4.289-1.791 1.179 0 2.358 0.344 3.375 1.032 0.13 0.090 0.291 0.143 0.465 0.143h0c0.244 0 0.485-0.109 0.645-0.316 0.155-0.199 0.309-0.376 0.474-0.544l-0.001 0.001c1.181-1.204 2.743-1.808 4.306-1.808 1.523 0 3.046 0.573 4.22 1.723 2.338 2.29 2.414 6.063 0.169 8.444-0.192 0.203-0.394 0.39-0.608 0.563l-0.012 0.009c-0.187 0.15-0.305 0.378-0.305 0.634 0 0.176 0.056 0.339 0.151 0.472l-0.002-0.002c1.649 2.329 1.453 5.571-0.606 7.686-1.169 1.2-2.733 1.797-4.302 1.797zM3.631 29.588c-0.104 0.056-0.227 0.089-0.358 0.089v0c-0.19 0-0.377-0.071-0.519-0.208l-0.012-0.012c-0.231-0.23-0.283-0.584-0.137-0.875l6.206-12.345 7.043 6.908-12.223 6.443z"></path>
            <path d="M3.274 32c-0.802 0-1.56-0.306-2.135-0.862-0.011-0.011-0.022-0.022-0.033-0.033-0.47-0.468-0.77-1.059-0.87-1.711-0.098-0.638 0.004-1.28 0.294-1.857l6.633-13.195c-0.232-0.362-0.453-0.78-0.637-1.217l-0.021-0.055c-0.418-1.012-0.635-2.081-0.643-3.18-0.008-1.084 0.186-2.14 0.579-3.14 0.41-1.045 1.018-1.979 1.807-2.777 0.798-0.807 1.732-1.433 2.777-1.861 1.008-0.412 2.073-0.621 3.165-0.621 1.236 0 2.425 0.263 3.534 0.782 0.745-0.704 1.603-1.258 2.55-1.647 1.012-0.416 2.082-0.627 3.18-0.627 1.070 0 2.114 0.201 3.104 0.596 1.026 0.41 1.949 1.012 2.743 1.79 0.793 0.777 1.413 1.688 1.843 2.707 0.415 0.982 0.636 2.023 0.657 3.094s-0.158 2.12-0.533 3.118c-0.37 0.986-0.917 1.881-1.625 2.661 0.538 1.075 0.852 2.342 0.852 3.682 0 0.215-0.008 0.427-0.024 0.638l0.002-0.028c-0.070 0.959-0.303 1.89-0.691 2.767-0.401 0.908-0.958 1.731-1.655 2.447-0.795 0.817-1.733 1.449-2.788 1.879-1.009 0.412-2.079 0.621-3.18 0.621-1.082 0-2.138-0.202-3.14-0.601-0.481-0.193-0.889-0.399-1.276-0.636l0.037 0.021-13.065 6.887c-0.418 0.224-0.914 0.356-1.441 0.357h-0zM14.19 1.545c-1.086 0-2.144 0.208-3.145 0.617-1.038 0.424-1.966 1.046-2.759 1.849-0.784 0.793-1.388 1.721-1.795 2.759-0.39 0.993-0.583 2.043-0.575 3.12 0.009 1.091 0.224 2.154 0.639 3.159 0.206 0.494 0.428 0.914 0.682 1.311l-0.020-0.034 0.008 0.013-0.007 0.014-6.64 13.209c-0.285 0.567-0.385 1.198-0.289 1.825 0.099 0.641 0.393 1.222 0.851 1.678 0.014 0.014 0.025 0.025 0.036 0.035 0.565 0.546 1.31 0.847 2.098 0.847 0.491 0 0.981-0.121 1.416-0.35l13.092-6.901 0.013 0.008c0.352 0.218 0.761 0.425 1.188 0.599l0.056 0.020c0.995 0.396 2.045 0.597 3.12 0.597 1.093 0 2.156-0.207 3.159-0.617 1.048-0.428 1.98-1.056 2.77-1.867 0.692-0.711 1.246-1.529 1.645-2.431 0.385-0.871 0.616-1.796 0.686-2.75 0.014-0.181 0.022-0.393 0.022-0.606 0-1.338-0.316-2.602-0.876-3.723l0.022 0.048-0.008-0.016 0.012-0.014c0.709-0.778 1.257-1.672 1.627-2.657 0.372-0.992 0.551-2.034 0.529-3.098s-0.241-2.098-0.653-3.074c-0.428-1.013-1.044-1.918-1.831-2.69-0.789-0.773-1.706-1.371-2.725-1.779-0.983-0.393-2.021-0.592-3.084-0.592-1.091 0-2.154 0.21-3.159 0.623-0.946 0.389-1.803 0.943-2.547 1.648l-0.013 0.013-0.017-0.008c-1.107-0.52-2.293-0.784-3.527-0.784zM3.274 29.703c-0.203 0-0.394-0.077-0.538-0.216l-0.012-0.012c-0.238-0.237-0.295-0.601-0.142-0.906l6.222-12.378 0.026 0.026 7.069 6.934-12.255 6.46c-0.107 0.058-0.235 0.091-0.37 0.092h-0zM8.819 16.282l-6.189 12.312c-0.143 0.284-0.090 0.623 0.132 0.843l0.012 0.011c0.134 0.129 0.312 0.201 0.501 0.201 0.12 0 0.239-0.030 0.345-0.086l12.19-6.426-6.99-6.857zM22.158 23.675c-0 0-0 0-0 0-0.651 0-1.278-0.1-1.867-0.286l0.044 0.012c-0.89-0.274-1.685-0.732-2.363-1.363-0.039-0.037-0.078-0.074-0.117-0.111l-7.864-7.714c-0.038-0.038-0.076-0.075-0.112-0.113l-0.002-0.002c-0.644-0.666-1.118-1.452-1.408-2.336-0.722-2.196-0.18-4.562 1.413-6.174 1.146-1.16 2.676-1.799 4.308-1.799v0.054c-1.617 0-3.133 0.633-4.27 1.783-1.579 1.598-2.115 3.942-1.4 6.119 0.288 0.877 0.758 1.656 1.396 2.316 0.037 0.038 0.075 0.076 0.113 0.114l7.864 7.714c0.038 0.037 0.077 0.074 0.116 0.111 0.672 0.625 1.46 1.080 2.342 1.351 0.541 0.172 1.162 0.272 1.807 0.272 0 0 0 0 0 0v0c1.639 0 3.16-0.635 4.283-1.789 2.020-2.074 2.273-5.292 0.603-7.651-0.256-0.361-0.185-0.862 0.161-1.139 0.225-0.181 0.426-0.368 0.614-0.567l0.003-0.003c1.081-1.146 1.659-2.651 1.627-4.237s-0.669-3.066-1.795-4.169c-1.129-1.106-2.621-1.715-4.201-1.715-1.626 0-3.148 0.639-4.287 1.8-0.163 0.166-0.317 0.342-0.46 0.527l-0.010 0.014c-0.16 0.208-0.403 0.327-0.666 0.327-0.171 0-0.337-0.051-0.48-0.148-0.993-0.672-2.155-1.027-3.36-1.027l-0-0.027 0-0.027c1.216 0 2.389 0.358 3.39 1.036 0.126 0.087 0.282 0.138 0.45 0.139v0c0.246 0 0.474-0.112 0.624-0.306 0.155-0.2 0.311-0.378 0.476-0.546l-0.001 0.001c1.148-1.171 2.684-1.816 4.325-1.816 1.594 0 3.1 0.614 4.239 1.73 1.136 1.113 1.779 2.607 1.811 4.206s-0.551 3.118-1.642 4.275c-0.192 0.204-0.396 0.392-0.611 0.566l-0.012 0.009c-0.324 0.26-0.39 0.728-0.15 1.066 1.685 2.38 1.429 5.627-0.608 7.72-1.133 1.164-2.668 1.805-4.322 1.805z"></path>
        </symbol>
        <symbol id="icon-github" viewBox="0 0 32 32">
            <path fill="#fea5bb" style="fill: var(--color3, #fea5bb)" d="M32 16c0 8.837-7.163 16-16 16s-16-7.163-16-16c0-8.837 7.163-16 16-16s16 7.163 16 16z"></path>
            <path fill="#fff" style="fill: var(--color4, #fff)" d="M16 6.588c-5.17 0-9.412 4.243-9.412 9.412 0 4.412 3.096 8.419 7.206 9.412v-3.114c-0.407 0.090-0.782 0.092-1.197-0.030-0.556-0.165-1.008-0.535-1.343-1.1-0.214-0.36-0.593-0.752-0.988-0.723l-0.097-1.099c0.855-0.073 1.594 0.521 2.033 1.259 0.195 0.328 0.42 0.52 0.708 0.605 0.278 0.082 0.577 0.043 0.926-0.080 0.087-0.698 0.407-0.96 0.648-1.327-2.451-0.366-3.428-1.666-3.816-2.693-0.514-1.363-0.238-3.066 0.67-4.142 0.018-0.020 0.050-0.076 0.038-0.114-0.417-1.259 0.090-2.3 0.11-2.41 0.48 0.142 0.558-0.143 2.088 0.786l0.264 0.159c0.11 0.066 0.076 0.028 0.187 0.020 0.59-0.167 1.268-0.267 1.969-0.278l0.006-0c0.717 0.011 1.404 0.114 2.058 0.299l-0.056-0.014 0.086 0.009c-0.008-0.002 0.023-0.006 0.075-0.037 1.91-1.157 1.842-0.779 2.354-0.945 0.019 0.11 0.52 1.168 0.108 2.41-0.056 0.172 1.656 1.74 0.707 4.257-0.388 1.027-1.365 2.327-3.816 2.693 0.314 0.48 0.692 0.734 0.69 1.722v3.887c4.11-0.993 7.206-5 7.206-9.412 0-5.17-4.242-9.412-9.412-9.412z"></path>
        </symbol>
        <symbol id="icon-facebook" viewBox="0 0 32 32">
            <path fill="#fea5bb" style="fill: var(--color3, #fea5bb)" d="M15.971 31.515c8.569 0 15.515-6.946 15.515-15.515s-6.946-15.515-15.515-15.515c-8.568 0-15.515 6.946-15.515 15.515s6.947 15.515 15.515 15.515z"></path>
            <path fill="#fff" style="fill: var(--color4, #fff)" d="M20.282 15.982h-2.531v9.328h-3.835v-9.329h-1.823v-3.278h1.823v-2.121c0-1.518 0.718-3.892 3.869-3.892l2.841 0.012v3.182h-2.062c-0.337 0-0.814 0.171-0.814 0.894v1.93h2.866l-0.335 3.274z"></path>
        </symbol>
        <symbol id="icon-Ellipse-7" viewBox="0 0 32 32">
            <path fill="#d9d9d9" style="fill: var(--color5, #d9d9d9)" d="M32 16c0 8.837-7.163 16-16 16s-16-7.163-16-16c0-8.837 7.163-16 16-16s16 7.163 16 16z"></path>
        </symbol>
        <symbol id="icon-Ellipse-5" viewBox="0 0 32 32">
            <path d="M32 16c0 8.837-7.163 16-16 16s-16-7.163-16-16c0-8.837 7.163-16 16-16s16 7.163 16 16z"></path>
        </symbol>
        <symbol id="icon-close" viewBox="0 0 32 32">
            <path fill="none" stroke="#fff" style="stroke: var(--color4, #fff)" stroke-linejoin="miter" stroke-linecap="butt" stroke-miterlimit="4" stroke-width="2" d="M2.52 2l26.96 28M2 29.48l28-26.96"></path>
        </symbol>
        <symbol id="icon-quote" viewBox="0 0 32 32">
            <path fill="#e1e1e1" style="fill: var(--color6, #e1e1e1)" d="M23.714 4.148c1.428 0 2.777 0.385 4.047 1.156s2.302 1.879 3.095 3.324c0.762 1.445 1.143 3.148 1.143 5.107s-0.476 3.87-1.428 5.733c-0.318 0.674-0.889 1.541-1.715 2.601-0.857 1.060-1.65 1.975-2.38 2.746l-3 3.035-2.143-3.565c1.528-0.964 2.832-2.115 3.931-3.442l0.022-0.027c1.143-1.349 1.714-2.585 1.714-3.71 0-0.578-0.127-1.044-0.38-1.397-1.111 0.803-2.35 1.205-3.714 1.205-0.984 0-1.921-0.305-2.809-0.916-0.917-0.579-1.657-1.359-2.174-2.28l-0.016-0.032c-0.571-0.932-0.857-1.895-0.857-2.891 0-1.125 0.333-2.2 1-3.228 0.641-1.029 1.489-1.871 2.491-2.486l0.033-0.019c1.015-0.61 2.062-0.916 3.142-0.916zM6.619 4.148c1.428 0 2.777 0.385 4.047 1.156s2.302 1.879 3.095 3.324c0.762 1.445 1.143 3.148 1.143 5.107 0 1.381-0.175 2.617-0.524 3.71-0.35 1.124-0.952 2.296-1.81 3.517-0.825 1.156-1.603 2.12-2.333 2.891-0.73 0.803-2 2.136-3.81 3.999l-2.143-3.565c1.528-0.964 2.832-2.115 3.931-3.442l0.022-0.027c1.143-1.349 1.714-2.585 1.714-3.71 0-0.578-0.127-1.044-0.381-1.397-1.111 0.803-2.35 1.205-3.714 1.205-0.984 0-1.921-0.305-2.809-0.916-0.917-0.579-1.657-1.359-2.174-2.28l-0.016-0.032c-0.571-0.932-0.857-1.895-0.857-2.891 0-1.125 0.318-2.2 0.952-3.228 0.641-1.029 1.489-1.871 2.491-2.486l0.033-0.019c1.015-0.61 2.062-0.916 3.143-0.916z"></path>
        </symbol>
        <symbol id="icon-arrow-right2" viewBox="0 0 32 32">
            <path d="M19.414 27.414l10-10c0.781-0.781 0.781-2.047 0-2.828l-10-10c-0.781-0.781-2.047-0.781-2.828 0s-0.781 2.047 0 2.828l6.586 6.586h-19.172c-1.105 0-2 0.895-2 2s0.895 2 2 2h19.172l-6.586 6.586c-0.39 0.39-0.586 0.902-0.586 1.414s0.195 1.024 0.586 1.414c0.781 0.781 2.047 0.781 2.828 0z"></path>
        </symbol>
        <symbol id="icon-burger" viewBox="0 0 46 32">
            <path fill="none" stroke="#d41443" style="stroke: var(--color1, #d41443)" stroke-linejoin="miter" stroke-linecap="butt" stroke-miterlimit="4" stroke-width="2.2857" d="M0 2.286h45.714M0 16h45.714M0 29.714h45.714"></path>
        </symbol>
        <symbol id="icon-bnt-arrow" viewBox="0 0 26 32">
            <path fill="none" stroke="#d41443" style="stroke: var(--color1, #d41443)" stroke-linejoin="round" stroke-linecap="round" stroke-miterlimit="4" stroke-width="6.4" d="M3.542 3.2l16.826 12.8-16.826 12.8"></path>
        </symbol>
    </defs>
</svg>